<svg viewBox="0 0 430 249" style="background-color:#ffffff00" xmlns="http://www.w3.org/2000/svg" width="430" height="249"><g><path d="M48 8l382 127-41 114L5 192 48 8z"/><path d="M43 0l382 127-41 114L0 184 43 0z" fill="#433067"/><path d="M415.31 62L413 210.133 357.69 223 347 74.867 415.31 62zM213.524 85.523h-14.35V207.4h14.35c0-2.405 0-4.01.797-4.81 1.596 2.405 8.77 5.612 11.96 5.612 6.377 0 15.944-4.81 15.944-16.036v-70.56c0-7.218-7.972-12.83-15.944-12.83-3.19 0-7.175 0-11.96 4.81l-.796-28.063zm13.553 41.695v62.542c-1.595 1.604-3.986 3.208-6.378 3.208-1.595 0-4.784-2.406-6.38-4.01v-61.74c2.393-2.406 4.785-3.208 6.38-3.208 1.594 0 5.58-.8 6.377 3.208zM78.79 108.776H64.44v77.777c0 9.622 9.567 21.65 21.526 21.65 4.783 0 11.958-4.01 15.147-8.02 2.392 4.01 10.364 8.02 14.35 8.02 8.77 0 16.742-5.614 21.526-17.64v-81.787h-13.554v79.38c-3.19 4.81-4.784 5.613-7.973 5.613-3.188 0-4.783-.803-7.175-5.613v-79.38h-14.35v80.18c-2.392 4.01-4.783 4.812-7.175 4.812-3.986 0-5.58-1.604-7.973-7.217v-77.777zm110.817 16.838c0-8.018-11.96-16.838-21.526-16.838-9.566 0-16.74 4.81-21.524 17.64v64.146c0 9.622 13.553 17.64 21.525 17.64 7.974 0 19.135-5.613 21.527-18.442v-8.82h-13.553c1.594 7.217-3.19 12.83-7.973 12.83-2.39 0-3.985-1.604-7.174-4.812v-17.64h28.7v-45.704zm-14.35 3.207v28.065h-13.554V128.02c1.595-4.81 4.784-4.01 6.378-4.01 2.393 0 7.176 1.604 7.176 4.81z" fill="#ffc60c"/><g opacity=".502" fill="#fff"><path d="M135.87 58.25l.926 5.614-3.275 6.253s-1.258-2.654-3.346-4.122c-1.76-1.238-2.906-1.505-4.7-1.137-2.302.474-4.912 3.222-6.052 6.61-1.363 4.052-1.376 6.014-1.424 7.816-.076 2.888.38 4.595.38 4.595s-1.988-3.672-1.97-9.05c.013-3.838.617-7.318 2.397-10.753 1.566-3.02 3.893-4.832 5.958-5.046 2.135-.22 3.822.808 5.126 1.92 1.368 1.166 2.753 3.718 2.753 3.718l3.227-6.418zM136.274 90.014s-1.448 2.582-2.35 3.576c-.902.995-2.516 2.75-4.51 3.625-1.993.876-3.038 1.042-5.007.852-1.968-.19-3.798-1.326-4.44-1.8-.64-.474-2.277-1.87-3.202-3.173-.926-1.303-2.374-3.91-2.374-3.91s.808 2.612 1.312 3.72c.29.636 1.184 2.588 2.45 4.287 1.183 1.585 3.478 4.313 6.967 4.927 3.488.617 5.885-.947 6.478-1.326.594-.377 1.844-1.422 2.635-2.267.826-.882 1.607-2.007 2.04-2.682.317-.493.832-1.49.832-1.49l-.83-4.336zM76.03 58.497l7.888 26.766 7.888-26.766h5.71L84.463 102.47h-.544l-8.16-27.25-8.16 27.25h-.543L54 58.498h5.71L67.6 85.263l5.332-18.025-2.61-8.74h5.71zM113.735 88.356c0 3.982-1.06 7.33-3.183 10.045-2.12 2.714-4.87 4.07-8.24 4.07-2.54 0-4.752-.805-6.638-2.416-1.885-1.61-3.282-3.79-4.188-6.54l4.46-1.846c.654 1.666 1.515 2.977 2.585 3.935 1.07.96 2.33 1.44 3.78 1.44 1.524 0 2.812-.85 3.864-2.55 1.052-1.703 1.577-3.747 1.577-6.137 0-2.642-.56-4.686-1.685-6.134-1.306-1.7-3.355-2.552-6.148-2.552h-2.175v-2.606l7.616-13.138h-9.194l-2.556 4.343h-1.632v-9.773h21.215v2.66l-8.05 13.844c2.83.906 4.968 2.553 6.418 4.942 1.45 2.39 2.177 5.193 2.177 8.414zM141.688 59.552c.563 0 .82.156.82.547 0 .373-.257.506-.805.506h-.508v-1.054h.493zm.11-.39h-1.205v3.183h.602v-1.358h.594l.647 1.358h.673l-.71-1.45c.46-.094.726-.407.726-.86 0-.576-.438-.873-1.33-.873zm2.368 1.67c0 .647-.25 1.248-.712 1.693-.485.468-1.087.717-1.75.717-.626 0-1.244-.257-1.704-.725-.462-.468-.72-1.07-.72-1.71 0-.64.266-1.263.743-1.746.445-.452 1.047-.693 1.704-.693.672 0 1.274.25 1.743.725.453.452.696 1.06.696 1.74zM141.72 58c-.76 0-1.44.273-1.956.796-.546.554-.85 1.27-.85 2.012s.288 1.428.82 1.967c.538.546 1.234.842 1.985.842.734 0 1.446-.296 2-.835.532-.515.82-1.2.82-1.974 0-.75-.296-1.45-.812-1.973-.54-.547-1.243-.835-2.01-.835z"/></g><g fill="#fff"><path d="M51.748 203.707c-.64.614-1.455.903-2.43.903-.958 0-1.774-.29-2.43-.903-.32-.27-.567-.614-.745-1.03-.177-.415-.284-.92-.284-1.516 0-.577.177-1.1.496-1.57.337-.452.763-.776 1.277-.993v-1.5c-.887.29-1.614.796-2.164 1.554-.55.796-.834 1.716-.834 2.8 0 1.372.46 2.474 1.365 3.322.888.83 1.988 1.228 3.318 1.228 1.348 0 2.447-.397 3.316-1.228.923-.85 1.366-1.95 1.366-3.322 0-1.084-.266-2.004-.834-2.8-.532-.757-1.26-1.263-2.163-1.552v1.5c.532.215.957.54 1.277.992.337.47.496.993.496 1.57 0 1.084-.337 1.933-1.028 2.547zM46 194.39c.87.812 1.97 1.21 3.318 1.21s2.465-.398 3.316-1.21c.923-.867 1.366-1.987 1.366-3.377 0-1.372-.443-2.492-1.366-3.358-.85-.813-1.968-1.228-3.316-1.228-1.348 0-2.448.415-3.317 1.228-.903.866-1.364 1.986-1.364 3.358 0 1.39.46 2.51 1.365 3.377zm5.748-1.012c-.64.56-1.437.83-2.43.83-.976 0-1.79-.27-2.43-.83-.674-.577-1.03-1.354-1.03-2.365.002-.993.356-1.788 1.03-2.365.64-.542 1.454-.83 2.43-.83.993 0 1.79.288 2.43.83.69.577 1.028 1.372 1.028 2.365 0 1.01-.337 1.788-1.028 2.365zM44.778 184.62h9.08v-1.37h-5.232c-.816 0-1.472-.272-2.004-.814-.496-.542-.763-1.192-.763-1.986 0-.758.248-1.372.744-1.86.497-.47 1.17-.722 2.005-.722h5.248v-1.39h-5.285c-1.206 0-2.18.38-2.926 1.137-.337.343-.586.74-.763 1.174-.16.45-.248.974-.248 1.588 0 .614.16 1.173.46 1.643.302.488.675.904 1.1 1.23h-1.418v1.37zM42.295 170.067H41v.11c0 1.082.248 1.913.745 2.527.497.614 1.24.903 2.235.903h.798v1.59h1.206v-1.59h7.874v-1.39h-7.874v-2.15h-1.206v2.15h-.692c-.62 0-1.082-.163-1.366-.488-.283-.326-.425-.814-.425-1.482v-.18zM51.925 166.583c-.532.577-1.224.92-2.057 1.01v-7.746h-.55c-1.348 0-2.448.416-3.317 1.228-.903.867-1.364 1.986-1.364 3.36 0 1.39.46 2.51 1.365 3.375.87.813 1.97 1.21 3.318 1.21s2.447-.415 3.316-1.264c.923-.867 1.366-2.004 1.366-3.413 0-1.083-.248-1.986-.763-2.69-.496-.686-1.17-1.192-1.986-1.517v1.517c1.03.542 1.526 1.445 1.526 2.672 0 .92-.284 1.68-.85 2.258zm-5.285-4.298c.496-.542 1.153-.867 1.95-.993v6.284c-.797-.11-1.454-.452-1.95-.993-.514-.578-.78-1.283-.78-2.15 0-.83.266-1.552.78-2.148zM44.636 153.257c0 .577.106 1.083.283 1.48.46.994 1.152 1.644 2.092 1.932h-2.234v1.372h9.08v-1.373h-3.99c-1.03 0-1.934-.29-2.696-.903-.78-.614-1.17-1.427-1.17-2.438v-.164h-1.366v.09zM51.925 150.404c-.532.578-1.224.92-2.057 1.01v-7.745h-.55c-1.348 0-2.448.414-3.317 1.227-.903.866-1.364 1.986-1.364 3.358 0 1.39.46 2.51 1.365 3.377.87.812 1.97 1.21 3.318 1.21s2.447-.416 3.316-1.265c.923-.866 1.366-2.004 1.366-3.412 0-1.084-.248-1.986-.763-2.69-.496-.687-1.17-1.192-1.986-1.517v1.516c1.03.542 1.526 1.445 1.526 2.673 0 .92-.284 1.68-.85 2.257zm-5.285-4.298c.496-.54 1.153-.866 1.95-.993v6.284c-.797-.108-1.454-.45-1.95-.993-.514-.578-.78-1.282-.78-2.15 0-.83.266-1.552.78-2.148zm-3.14.09l-1.897 1.788v1.607l1.898 1.825v-1.517l-.975-1.1.976-1.085v-1.516zM44.778 141.863h9.08v-1.372h-5.232c-.816 0-1.472-.27-2.004-.812-.496-.542-.763-1.192-.763-1.986 0-.758.248-1.372.744-1.86.497-.47 1.17-.722 2.005-.722h5.248v-1.39h-5.285c-1.206 0-2.18.38-2.926 1.137-.337.343-.586.74-.763 1.174-.16.452-.248.976-.248 1.59 0 .614.16 1.173.46 1.643.302.487.675.903 1.1 1.228h-1.418v1.373zM51.748 129.747c-.64.614-1.455.903-2.43.903-.958 0-1.774-.29-2.43-.903-.32-.27-.567-.614-.745-1.03-.177-.415-.284-.92-.284-1.516 0-.577.177-1.1.496-1.57.337-.45.763-.776 1.277-.993v-1.5c-.887.29-1.614.796-2.164 1.554-.55.796-.834 1.717-.834 2.8 0 1.372.46 2.474 1.365 3.322.888.83 1.988 1.228 3.318 1.228 1.348 0 2.447-.397 3.316-1.228.923-.848 1.366-1.95 1.366-3.322 0-1.083-.266-2.004-.834-2.8-.532-.757-1.26-1.263-2.163-1.552v1.5c.532.216.957.54 1.277.992.337.47.496.993.496 1.57 0 1.084-.337 1.933-1.028 2.547zM53.858 121.062v-1.373h-9.08v1.372h9.08zm-12.38.072h1.774v-1.5H41.48v1.5zM53.858 110.39V109h-9.08v1.39h1.472c-1.065.76-1.614 1.842-1.614 3.233 0 1.39.46 2.51 1.365 3.34.888.813 2.005 1.21 3.318 1.21 1.33 0 2.43-.398 3.316-1.21.923-.83 1.366-1.932 1.366-3.268 0-1.445-.532-2.546-1.596-3.305h1.454zm-2.11 5.526c-.64.578-1.437.866-2.43.866-.976 0-1.79-.288-2.43-.866-.674-.614-1.03-1.41-1.03-2.402.002-.993.356-1.787 1.03-2.365.64-.543 1.454-.832 2.43-.832.993 0 1.79.29 2.43.83.69.58 1.028 1.373 1.028 2.366 0 .993-.337 1.788-1.028 2.402z"/></g><g fill="#45255f"><path d="M398.938 129.438c1.703-1.625 2.562-3.922 2.562-6.89 0-1.345-.172-2.548-.5-3.595-.344-1.062-.813-1.937-1.406-2.656-.594-.72-1.328-1.313-2.203-1.78-.874-.47-1.812-.814-2.812-1.017-1-.22-2.11-.313-3.312-.313h-2.08l.002 6.75h.484c.312 0 .672-.015 1.062-.015.39-.016.813 0 1.25.047.438.03.86.077 1.297.14.44.046.845.14 1.236.265.375.125.718.28 1.015.47.298.186.533.42.704.718.172.28.266.61.266.984 0 .437-.125.844-.375 1.187-.25.344-.563.61-.953.797-.406.19-.813.345-1.235.44-.437.093-.843.155-1.25.155-.687 0-1.39-.094-2.11-.28-.718-.19-1.452-.47-2.17-.845-.735-.375-1.36-.72-1.876-1.047-.514-.328-1.14-.734-1.858-1.22l-12.47-8.56H366v18.718h7v-10.937c.688.53 1.703 1.375 3.03 2.53 1.314 1.158 2.5 2.142 3.548 2.986 1.047.827 2.25 1.686 3.625 2.593 1.375.906 2.797 1.593 4.297 2.093 1.484.485 2.984.735 4.5.735 2.922 0 5.234-.827 6.938-2.452zM374.203 146.656c-.53-.062-1.094-.172-1.703-.344-.61-.17-1.094-.437-1.453-.812-.375-.375-.547-.844-.547-1.39 0-.438.125-.83.39-1.157.25-.344.58-.594.954-.78.375-.19.828-.33 1.344-.423.515-.11.984-.172 1.39-.203.406-.03.813-.047 1.25-.047h15.313c.5 0 .923 0 1.298.03.375.017.828.08 1.375.173.546.094 1 .22 1.36.406.358.17.67.42.936.765.25.344.39.75.39 1.234 0 1.75-1.797 2.64-5.36 2.64H375.83c-.562 0-1.11-.03-1.625-.094zm-2.03-11.437c-1.298.374-2.44.952-3.44 1.702s-1.796 1.75-2.374 2.984c-.563 1.22-.86 2.625-.86 4.203 0 1.546.297 2.937.875 4.156.578 1.218 1.375 2.218 2.375 2.984 1 .75 2.14 1.328 3.438 1.72 1.28.39 2.67.593 4.156.593h14.265c1.53 0 2.952-.188 4.234-.563 1.28-.375 2.437-.922 3.453-1.656 1-.75 1.797-1.735 2.36-2.97.562-1.233.843-2.655.843-4.265 0-1.626-.28-3.063-.844-4.282-.562-1.234-1.36-2.22-2.36-2.97-1-.75-2.155-1.296-3.437-1.67-1.298-.375-2.72-.547-4.25-.547h-14.266c-1.5 0-2.89.188-4.172.58zM365 166.11h35v-5.188c-.594-.297-1.11-.656-1.516-1.063-.42-.423-.718-.798-.906-1.14-.187-.345-.422-.814-.72-1.423-.296-.61-.546-1.094-.764-1.453H391v3.547h-26v6.72zM372.375 170.094c-1.078.156-2.125.453-3.125.875-1 .42-1.844.983-2.516 1.67-.687.688-1.218 1.58-1.625 2.673-.407 1.093-.61 2.36-.61 3.796 0 1.28.172 2.42.5 3.42.344 1 .828 1.83 1.453 2.5.625.673 1.328 1.236 2.11 1.704.78.47 1.687.813 2.703 1.063 1 .25 2 .422 2.984.53.97.095 2.03.157 3.172.157 1.14 0 2.203-.078 3.172-.218.97-.14 1.922-.407 2.86-.782.937-.39 1.718-.875 2.374-1.468.656-.594 1.172-1.375 1.578-2.344.39-.97.594-2.078.594-3.328 0-1.03-.36-2.172-1.063-3.422H393v10.422h7v-16.75h-19.922v5.765c.75.28 1.438.67 2.03 1.156.595.484.892 1.047.892 1.703 0 .39-.094.733-.266 1.046-.17.312-.42.562-.734.75-.328.187-.656.328-1 .453-.344.124-.734.202-1.203.264-.47.047-.86.078-1.172.094-.313 0-.688.016-1.094.016h-.56c-.392-.016-.814-.016-1.25 0-.454.015-.923 0-1.392-.047-.484-.047-.953-.11-1.422-.172-.47-.063-.906-.172-1.312-.313-.406-.156-.766-.328-1.078-.53-.313-.22-.563-.485-.75-.83-.188-.343-.266-.718-.266-1.155 0-.344.063-.64.22-.89.14-.25.374-.47.686-.626.313-.155.64-.296.985-.39.344-.093.782-.17 1.344-.202.547-.032 1.047-.063 1.516-.08.47-.014 1.03-.014 1.72 0v-6.75c-1.33 0-2.533.08-3.595.236z"/></g><path d="M250.35 190.897c0-5.327 4.083-9.646 9.12-9.646 5.037 0 9.12 4.32 9.12 9.647 0 5.328-4.083 9.646-9.12 9.646-5.037 0-9.12-4.319-9.12-9.646zm24.953-106.374h-14.35v86.597c-.798.802-2.392 2.405-3.19 2.405-11.16 4.01-14.35 9.623-14.35 16.84 0 7.215 4.784 16.837 15.945 16.837 4.784 0 12.756-6.414 14.35-6.414.798 0 5.58 6.414 14.35 6.414 7.176 0 14.35-4.81 15.945-13.63v-72.165c0-8.02-7.972-13.63-15.944-13.63-2.393 0-11.163 4.008-11.96 5.61l-.797-28.864zm13.553 41.695v61.74c-1.594 2.406-3.986 4.81-5.58 4.81-2.392 0-4.784-2.404-7.176-4.008v-61.74c1.595-4.81 4.784-4.01 6.378-4.01 1.595 0 3.19 0 6.378 3.208zm50.226-18.442h-3.19c-3.188 1.603-6.377 3.207-8.768 5.612-.798-1.603-.798-3.207-.798-4.81h-14.35V206.4h14.35v-79.38c2.392-2.406 5.58-5.613 7.972-5.613 1.595 0 3.19.802 4.784 1.603v-15.234z" fill="#fff"/></g></svg>